<svg xmlns="http://www.w3.org/2000/svg" width="500" height="500" viewBox="0 0 500 500" version="1.1"><path d="M 232 9.530 C 231.175 9.694, 225.775 10.334, 220 10.951 C 208.755 12.154, 196.103 14.734, 194.550 16.140 C 194.027 16.613, 192.002 17.034, 190.050 17.076 C 185.783 17.168, 179.425 19.390, 179.689 20.698 C 179.793 21.214, 178.559 21.442, 176.946 21.205 C 172.416 20.540, 148.864 30.349, 129.371 41.019 C 122.629 44.709, 104.910 56.375, 100.783 59.841 C 99.249 61.129, 98.247 62.591, 98.556 63.091 C 98.865 63.591, 98.228 64, 97.141 64 C 92.453 64, 65.415 91, 51.373 109.703 C 46.817 115.771, 45.786 118.197, 48.750 115.872 C 50.336 114.629, 50.371 114.664, 49.128 116.250 C 48.373 117.213, 47.149 118, 46.408 118 C 44.584 118, 37.736 128.869, 38.426 130.669 C 38.729 131.458, 38.559 131.846, 38.049 131.530 C 37.099 130.943, 32.043 138.958, 28.289 147 C 22.984 158.369, 20.201 164.919, 18.518 170 C 17.516 173.025, 16.047 177.007, 15.254 178.850 C 12.836 184.464, 9.086 198.802, 6.452 212.500 C 4.130 224.572, 3.952 227.641, 3.949 255.500 C 3.946 281.763, 4.209 286.932, 6.061 297 C 8.703 311.363, 13.749 330.782, 15.601 333.715 C 16.371 334.933, 17 336.787, 17 337.836 C 17 342.232, 31.362 372, 33.483 372 C 34.354 372, 34.710 372.592, 34.371 373.475 C 33.456 375.860, 44.856 393.851, 46.054 391.912 C 46.515 391.167, 46.963 391.132, 47.381 391.808 C 47.728 392.370, 47.457 393.014, 46.777 393.241 C 45.181 393.773, 48.440 399, 50.368 399 C 51.760 399, 55 402.105, 55 403.440 C 55 403.870, 54.115 403.159, 53.033 401.861 C 49.377 397.472, 50.970 401.278, 55.052 406.686 C 57.281 409.638, 59.500 411.809, 59.983 411.510 C 60.467 411.212, 61.187 411.494, 61.585 412.138 C 62.037 412.869, 61.876 413.041, 61.155 412.595 C 58.458 410.929, 60.315 414.052, 64 417.381 C 66.200 419.369, 68 421.414, 68 421.926 C 68 423.100, 88.033 441.856, 93.845 446.123 C 97.417 448.745, 98.367 449.062, 99.189 447.906 C 99.985 446.787, 100.077 446.849, 99.640 448.214 C 99.276 449.349, 100.056 450.616, 101.950 451.964 C 105.459 454.463, 106.704 454.585, 104.872 452.250 C 103.630 450.666, 103.665 450.630, 105.239 451.863 C 106.195 452.613, 106.741 453.610, 106.452 454.077 C 105.562 455.518, 113.989 460.219, 116.383 459.619 C 118.581 459.067, 172.585 407.024, 182.561 395.843 C 187.835 389.932, 189.812 386.334, 186.250 389.128 C 184.671 390.366, 184.632 390.332, 185.846 388.782 C 186.586 387.837, 187.662 387.162, 188.237 387.282 C 188.812 387.402, 190.456 385.264, 191.891 382.532 C 194.441 377.675, 194.507 377.065, 194.802 355.448 C 195.085 334.703, 194.992 333.332, 193.302 333.318 C 192.311 333.309, 191.169 333.797, 190.765 334.401 C 190.304 335.092, 190.025 334.889, 190.015 333.857 C 190.001 332.285, 186.857 331.360, 174.500 329.293 C 172.850 329.017, 169.088 327.636, 166.139 326.224 C 161.818 324.155, 160.422 323.880, 158.936 324.808 C 157.888 325.462, 156.852 325.569, 156.534 325.055 C 156.227 324.558, 156.769 323.997, 157.738 323.807 C 158.899 323.581, 157.231 322.193, 152.851 319.739 C 149.194 317.691, 143.714 313.988, 140.673 311.511 C 136.920 308.454, 134.559 307.197, 133.322 307.598 C 132.038 308.014, 131.879 307.916, 132.783 307.265 C 133.745 306.572, 132.655 304.862, 128.419 300.421 C 125.313 297.164, 120.310 291.012, 117.302 286.750 C 114.295 282.487, 111.196 279, 110.417 279 C 109.638 279, 109 278.523, 109 277.941 C 109 277.359, 109.450 277.160, 110 277.500 C 111.294 278.300, 111.261 277.667, 109.848 274.566 C 109.215 273.176, 107.865 271.774, 106.848 271.452 C 105.832 271.129, 105 270.419, 105 269.874 C 105 269.328, 105.450 269.160, 106 269.500 C 107.366 270.344, 107.262 269.557, 105.433 265.218 C 102.653 258.624, 99.427 248.694, 97.504 240.806 C 96.472 236.574, 95.318 233.303, 94.940 233.537 C 94.562 233.770, 94.179 226.208, 94.089 216.731 C 93.949 201.999, 93.685 199.319, 92.271 198.250 C 90.786 197.127, 91.194 196.557, 93.250 196.882 C 93.662 196.947, 94 195.200, 94 193 C 94 190.800, 94.391 189, 94.868 189 C 95.787 189, 97.154 182.634, 97.371 177.345 C 97.442 175.611, 97.751 174.346, 98.058 174.536 C 98.366 174.726, 99.156 172.866, 99.815 170.404 C 100.473 167.941, 102.597 161.870, 104.534 156.913 C 106.471 151.956, 107.749 147.403, 107.374 146.795 C 106.970 146.143, 107.147 145.973, 107.807 146.381 C 108.481 146.797, 109.777 145.371, 111.075 142.785 C 120.444 124.127, 142.117 99.996, 159.500 88.868 C 172.109 80.796, 181.660 75.830, 193.217 71.337 C 196.903 69.904, 197.559 69.335, 196.217 68.736 C 195.165 68.266, 195.586 68.182, 197.307 68.518 C 200.115 69.067, 211.230 66.180, 210.549 65.079 C 210.350 64.758, 212.390 64.361, 215.082 64.198 C 221.425 63.812, 233.399 61.303, 233.737 60.288 C 234.085 59.242, 257.271 59.754, 263 60.934 C 271.684 62.723, 284.051 65, 285.079 65 C 285.651 65, 285.864 64.590, 285.554 64.088 C 284.855 62.956, 287.651 63.289, 288.721 64.465 C 289.150 64.936, 288.868 64.954, 288.095 64.506 C 287.157 63.961, 286.925 64.069, 287.396 64.832 C 288.387 66.436, 298.760 69.306, 300.773 68.534 C 301.689 68.182, 302.117 68.216, 301.724 68.609 C 300.675 69.658, 309.143 73.196, 311.332 72.623 C 312.358 72.355, 312.909 72.424, 312.557 72.777 C 312.204 73.130, 315.846 75.376, 320.651 77.770 C 349.836 92.307, 376.890 117.821, 390.348 143.500 C 391.212 145.150, 391.941 145.825, 391.966 145 C 391.992 144.175, 392.685 144.789, 393.506 146.364 C 395.172 149.558, 395.503 151.326, 394 149 C 392.438 146.583, 392.790 149.565, 394.565 153.782 C 401.763 170.886, 401.881 200.106, 394.811 214.642 C 393.582 217.169, 393.057 219.604, 393.464 220.886 C 393.974 222.493, 393.778 222.852, 392.633 222.413 C 390.966 221.773, 387.489 227.364, 388.518 229.029 C 388.848 229.563, 388.614 230, 387.998 230 C 387.382 230, 383.944 232.906, 380.357 236.457 C 376.771 240.009, 371.286 244.591, 368.168 246.641 C 365.051 248.691, 362.275 250.668, 362 251.035 C 361.725 251.402, 360.375 251.972, 359 252.301 C 357.625 252.631, 354.250 253.534, 351.500 254.307 L 346.500 255.714 345.627 270.607 C 344.988 281.503, 346.090 394.083, 347.016 412.500 C 347.128 414.727, 345.725 422.534, 345.128 423 C 344.777 423.275, 343.879 425.300, 343.134 427.500 C 340.508 435.245, 335.473 441.666, 318.712 458.644 C 309.403 468.073, 301.834 476.060, 301.893 476.394 C 301.952 476.727, 301.786 476.887, 301.525 476.750 C 301.264 476.613, 297.697 479.831, 293.599 483.902 C 288.938 488.532, 286.202 492.038, 286.295 493.264 C 286.427 495.023, 286.969 495.161, 291.591 494.618 C 297.218 493.957, 303.403 491.737, 302.404 490.737 C 302.057 490.391, 302.694 490.177, 303.818 490.261 C 304.942 490.346, 305.641 490.772, 305.372 491.208 C 304.370 492.829, 309.871 491.901, 321.429 488.500 C 327.971 486.575, 333.588 484.993, 333.912 484.985 C 334.235 484.976, 333.825 484.533, 333 484 C 331.749 483.192, 331.832 483.008, 333.500 482.897 C 334.600 482.823, 335.921 482.844, 336.436 482.943 C 338.513 483.344, 342.023 481.852, 345.128 479.250 C 346.934 477.738, 348.067 477.063, 347.646 477.750 C 346.358 479.857, 349.126 479.152, 356.176 475.579 C 377.040 465.005, 393.149 454.593, 393.621 451.377 C 393.924 449.314, 396.050 447.856, 397.813 448.503 C 399.214 449.018, 413 438.420, 413 436.828 C 413 436.308, 412.480 436.203, 411.845 436.595 C 411.116 437.046, 410.963 436.869, 411.430 436.114 C 411.836 435.456, 412.971 435.174, 413.953 435.485 C 415.282 435.907, 418.958 432.708, 428.369 422.940 C 435.316 415.729, 441 409.363, 441 408.792 C 441 408.210, 440.266 408.357, 439.325 409.128 C 437.868 410.322, 437.883 410.143, 439.440 407.750 C 441.410 404.723, 442.254 404.174, 441.362 406.500 C 440.163 409.622, 442.095 407.737, 448.277 399.750 C 458.492 386.552, 464.697 376.517, 460.476 380.020 C 459.638 380.716, 458.699 381.032, 458.390 380.724 C 457.765 380.098, 460.935 378.177, 462.500 378.233 C 463.880 378.282, 477.936 350.004, 481 341.015 C 482.950 335.292, 483.210 333.582, 482.180 333.233 C 481.229 332.912, 481.417 332.396, 482.850 331.393 C 484.830 330.006, 488.316 321.321, 487.898 318.815 C 487.778 318.092, 488.229 316.161, 488.901 314.525 C 489.572 312.888, 491.308 305.913, 492.757 299.025 C 495.199 287.418, 495.413 284.369, 495.680 257.430 C 495.912 234.049, 495.663 226.907, 494.405 220.930 C 493.545 216.844, 492.479 210.800, 492.036 207.500 C 491.594 204.200, 490.552 199.475, 489.720 197 C 488.888 194.525, 487.932 190.900, 487.595 188.944 C 487.258 186.988, 486.086 183.630, 484.991 181.482 C 483.896 179.335, 483 176.872, 483 176.011 C 483 173.962, 475.335 155.522, 470.563 146.091 C 467.710 140.452, 466.582 139.019, 465.842 140.091 C 465.130 141.121, 465.035 140.908, 465.487 139.296 C 466.115 137.059, 465.858 136.522, 459.140 126 C 447.184 107.276, 423.558 80.411, 407.500 67.280 C 398.650 60.043, 392.074 55, 391.487 55 C 391.172 55, 388.478 53.200, 385.500 51 C 380.117 47.024, 377.192 45.852, 378.633 48.250 C 379.149 49.110, 378.859 49.074, 377.703 48.137 C 376.778 47.387, 376.219 46.454, 376.461 46.064 C 376.940 45.287, 362.475 36.705, 354.500 33.035 C 343.460 27.955, 340.635 26.978, 338.612 27.542 C 337.171 27.944, 336.916 27.842, 337.808 27.221 C 339.099 26.322, 338.340 26.005, 318.138 19.013 C 314.455 17.738, 310.191 16.962, 308.010 17.170 C 305.524 17.407, 304.389 17.150, 304.672 16.412 C 305.129 15.221, 297.151 13.296, 288.500 12.510 C 285.750 12.260, 279.225 11.376, 274 10.546 C 265.763 9.237, 236.979 8.541, 232 9.530 M 258.484 12.026 C 258.132 12.596, 259.541 13, 261.882 13 C 267.081 13, 267.961 11.568, 262.941 11.276 C 260.821 11.153, 258.815 11.490, 258.484 12.026 M 226.233 106.406 C 218.411 108.960, 218.376 108.981, 220.028 110.148 C 221.210 110.984, 221.128 111.067, 219.609 110.572 C 217.469 109.873, 212.159 112.858, 213.760 113.859 C 214.345 114.226, 213.653 115.327, 212.142 116.431 L 209.500 118.363 211.405 116.181 C 212.453 114.982, 212.817 114, 212.214 114 C 209.868 114, 200.443 126.221, 197.737 132.772 C 195.117 139.113, 194.976 140.219, 195.289 152 C 195.567 162.470, 196.017 165.464, 198.061 170.436 C 201.300 178.319, 210.870 188.549, 219.205 193.037 C 225.337 196.340, 225.855 196.437, 239.247 196.810 C 252.827 197.187, 253.072 197.155, 259.470 194.161 C 266.424 190.907, 274.559 183.962, 278.986 177.500 C 280.493 175.300, 282.913 170.049, 284.363 165.832 C 287.984 155.304, 287.904 147.175, 284.074 136.317 C 280.038 124.871, 272.797 114.771, 269.909 116.557 C 269.162 117.018, 268.949 116.892, 269.357 116.231 C 270.366 114.599, 264.380 110.745, 262.007 111.498 C 260.536 111.965, 260.157 111.754, 260.563 110.697 C 262.182 106.476, 236.030 103.207, 226.233 106.406 M 313.260 117.156 C 306.529 120.421, 303.393 124.712, 302.688 131.621 C 301.895 139.398, 302.391 142.488, 305.056 146.377 C 308.328 151.152, 313.916 154, 320.014 154 C 322.829 154, 325.935 153.570, 326.917 153.044 C 328.586 152.151, 328.749 153.175, 329.403 168.679 C 329.789 177.804, 330.357 186.535, 330.666 188.080 L 331.228 190.890 324.364 187.243 C 318.343 184.044, 316.444 183.545, 308.896 183.183 C 300.769 182.792, 299.926 182.952, 293.689 186.056 C 290.057 187.863, 284.479 191.748, 281.293 194.689 C 278.107 197.629, 273.196 201.637, 270.379 203.595 C 264.716 207.531, 253.432 212, 249.155 212 C 247.640 212, 245.972 212.399, 245.450 212.886 C 244.927 213.373, 241.821 214.092, 238.547 214.483 C 233.164 215.127, 232.720 215.042, 233.919 213.597 C 235.083 212.195, 234.882 212, 232.279 212 C 228.445 212, 219.273 208.832, 213.798 205.617 C 211.434 204.228, 207.267 200.822, 204.538 198.046 L 199.575 193 187.038 193.013 C 177.297 193.023, 173.050 193.476, 168 195.046 C 157.409 198.338, 125.510 216.860, 124.387 220.369 C 123.751 222.358, 125.693 226.985, 127.707 228.276 C 128.372 228.703, 128.662 229.718, 128.350 230.531 C 128.038 231.343, 129.683 236.619, 132.006 242.254 C 134.329 247.889, 136.930 254.206, 137.786 256.292 C 138.705 258.532, 139.853 259.887, 140.593 259.603 C 141.457 259.271, 141.704 259.905, 141.388 261.645 C 140.986 263.864, 144.021 273.293, 147.204 279.717 C 148.573 282.480, 164.063 294.710, 168.587 296.601 C 172.026 298.038, 179.606 298.472, 182.418 297.393 C 183.288 297.059, 184 296.173, 184 295.424 C 184 294.676, 184.593 294.290, 185.318 294.569 C 189.143 296.036, 196 285.498, 196 278.152 C 196 269.162, 189.106 260.119, 182.068 259.878 C 180.106 259.811, 176.715 259.698, 174.532 259.628 C 170.567 259.500, 170.564 259.497, 169.772 254.500 C 168.358 245.587, 167.971 244.435, 166.933 246.052 C 166.090 247.363, 166.477 242.848, 167.504 239.383 C 167.696 238.734, 171.196 238.072, 175.862 237.802 C 180.277 237.546, 184.476 236.875, 185.194 236.309 C 185.912 235.744, 187.937 235.009, 189.694 234.677 C 192.750 234.098, 193.002 234.304, 195.518 239.447 C 200.060 248.731, 215.549 263.854, 216.768 260.196 C 217.345 258.465, 219 258.726, 219 260.548 C 219 261.977, 224.802 265.241, 226.012 264.492 C 226.305 264.311, 226.427 268.739, 226.284 274.332 C 226.140 279.924, 225.883 307.450, 225.713 335.500 L 225.403 386.500 222.952 391.423 C 221.603 394.131, 216.931 399.954, 212.569 404.363 C 208.138 408.842, 205.178 412.559, 205.860 412.787 C 206.659 413.053, 206.322 413.854, 204.888 415.097 C 201.949 417.646, 201.236 417.512, 203.595 414.854 C 205.475 412.737, 205.474 412.723, 203.500 413.779 C 200.821 415.213, 198.001 418.668, 198.832 419.499 C 199.199 419.866, 198.970 420.017, 198.322 419.833 C 197.123 419.494, 149 466.659, 149 468.173 C 149 468.628, 148.341 469, 147.535 469 C 145.936 469, 144 471.962, 144 474.409 C 144 476.179, 149.022 479.071, 151.696 478.839 C 152.688 478.753, 154.400 478.786, 155.500 478.912 C 157.424 479.132, 157.427 479.169, 155.599 479.886 C 153.917 480.546, 154.033 480.752, 156.599 481.666 C 158.195 482.235, 161.075 483.269, 163 483.964 C 170.743 486.761, 170.826 486.730, 180.767 477.295 C 185.864 472.458, 190.026 467.782, 190.017 466.905 C 190.008 466.028, 190.900 464.495, 192 463.500 C 193.100 462.505, 194.019 461.197, 194.042 460.595 C 194.066 459.993, 195.753 458.449, 197.792 457.166 C 201.178 455.034, 201.025 455.316, 196.034 460.416 C 193.028 463.487, 191.009 466, 191.547 466 C 192.085 466, 199.045 459.415, 207.013 451.366 C 214.981 443.318, 220.649 437.028, 219.609 437.389 C 217.983 437.953, 217.900 437.825, 219.019 436.477 C 219.735 435.615, 220.909 435.135, 221.628 435.411 C 222.347 435.687, 223.245 435.413, 223.622 434.802 C 224.067 434.082, 223.848 433.976, 223 434.500 C 222.127 435.039, 221.932 434.919, 222.415 434.138 C 222.813 433.494, 223.602 433.254, 224.170 433.605 C 225.245 434.269, 235.893 424.318, 241.234 417.657 C 243.749 414.520, 244.057 413.639, 242.908 412.865 C 241.816 412.130, 241.944 411.982, 243.476 412.208 C 244.953 412.426, 246.141 411.223, 248.190 407.435 C 253.961 396.764, 254 396.228, 254 328.277 L 254 265.974 258.409 263.832 C 261.518 262.321, 262.670 261.219, 262.315 260.095 C 261.890 258.748, 261.971 258.726, 262.841 259.954 C 263.738 261.222, 264.230 261.223, 266.685 259.966 C 270.777 257.871, 283.003 245.348, 282.985 243.271 C 282.972 241.746, 282.822 241.708, 281.909 243 C 280.966 244.333, 280.898 244.333, 281.299 243 C 281.547 242.175, 282.246 241.609, 282.853 241.743 C 284.341 242.070, 286.897 236.933, 287.195 233.018 C 287.328 231.275, 287.858 229.588, 288.373 229.269 C 288.888 228.951, 289.003 229.186, 288.629 229.791 C 286.899 232.590, 309.585 234.379, 314.316 231.817 C 315.517 231.167, 317.745 230.724, 319.267 230.834 C 320.789 230.944, 324.164 230.079, 326.767 228.911 C 337.982 223.879, 346.536 219.703, 347 219.031 C 347.275 218.633, 348.625 218.018, 350 217.663 C 353.843 216.671, 355.742 215.157, 354.308 214.227 C 353.550 213.735, 354.460 213.034, 356.808 212.302 C 360.084 211.280, 360.281 211.311, 358.559 212.575 C 355.411 214.886, 358.643 214.206, 363.919 211.447 C 369.697 208.426, 371.852 204.568, 370.174 200.250 C 369.586 198.738, 368.133 193.791, 366.945 189.257 C 365.757 184.724, 364.388 181.260, 363.904 181.559 C 363.419 181.859, 363.280 181.433, 363.595 180.613 C 364.335 178.684, 362.382 169.290, 360.478 165.620 C 359.665 164.053, 358.966 161.135, 358.924 159.136 C 358.833 154.800, 356.622 148.423, 355.302 148.689 C 354.786 148.793, 354.546 147.637, 354.769 146.119 C 355.482 141.264, 353.071 134.835, 349.212 131.300 C 345.870 128.239, 342.088 126.716, 343.500 129 C 343.840 129.550, 343.641 130, 343.059 130 C 342.477 130, 341.972 128.988, 341.938 127.750 C 341.897 126.266, 340.296 124.346, 337.235 122.110 C 327.269 114.831, 320.807 113.496, 313.260 117.156 M 266 187.679 C 263.857 189.947, 263.797 190.166, 265.582 189.217 C 268.001 187.930, 270.653 184.992, 269.372 185.017 C 268.893 185.027, 267.375 186.225, 266 187.679 M 169.250 236.689 C 170.213 236.941, 171.787 236.941, 172.750 236.689 C 173.713 236.438, 172.925 236.232, 171 236.232 C 169.075 236.232, 168.287 236.438, 169.250 236.689 M 294.640 247.269 C 293.393 248.516, 290.658 252.904, 288.563 257.019 C 286.468 261.133, 284.134 265.388, 283.377 266.473 C 282.620 267.557, 282 269.245, 282 270.223 C 282 271.200, 281.591 272, 281.090 272 C 280.590 272, 278.343 275.262, 276.098 279.250 C 273.852 283.238, 270.810 288.525, 269.338 291 C 265.319 297.755, 262 304.794, 262 306.561 C 262 307.425, 262.440 308.954, 262.978 309.958 C 263.822 311.537, 265.400 311.804, 274.557 311.925 C 282.511 312.030, 284.975 311.768, 284.425 310.878 C 283.971 310.145, 284.118 309.955, 284.809 310.382 C 285.554 310.842, 285.777 313.986, 285.477 319.787 C 285.228 324.579, 284.793 345.375, 284.508 366 C 284.106 395.128, 283.656 404.653, 282.493 408.664 C 281.114 413.415, 275.662 421.581, 271.677 424.863 C 270.767 425.613, 270.314 426.738, 270.671 427.363 C 271.028 427.988, 270.952 428.166, 270.502 427.759 C 269.383 426.744, 266.865 428.972, 267.666 430.268 C 268.019 430.840, 267.840 431.019, 267.268 430.666 C 266.695 430.312, 265.702 430.654, 265.060 431.427 C 264.137 432.539, 264.271 432.911, 265.697 433.207 C 267.216 433.522, 267.145 433.678, 265.249 434.197 C 264 434.539, 263.247 434.410, 263.558 433.907 C 265.973 429.999, 258.581 436.908, 233.500 462 C 217.557 477.950, 204.903 491, 205.379 491 C 205.855 491, 205.718 491.635, 205.074 492.411 C 204.172 493.498, 204.201 494.006, 205.201 494.625 C 206.478 495.414, 219.551 496.309, 231.655 496.436 C 235.039 496.471, 237.600 496.837, 237.345 497.250 C 237.091 497.663, 237.533 498, 238.329 498 C 240.076 498, 265 473.837, 265 472.143 C 265 471.487, 266.125 470.523, 267.500 470 C 268.875 469.477, 270 468.363, 270 467.525 C 270 466.686, 270.568 466, 271.263 466 C 273.041 466, 301.079 437.482, 304.868 431.820 C 308.048 427.068, 308.861 424, 306.941 424 C 306.359 424, 306.148 423.570, 306.473 423.044 C 306.798 422.518, 307.648 422.311, 308.361 422.585 C 311.364 423.737, 311.863 415.714, 311.968 364.595 C 312.026 336.598, 312.308 313.310, 312.596 312.845 C 312.883 312.380, 317.559 312, 322.988 312 C 330.627 312, 333.212 311.645, 334.429 310.429 C 337.335 307.523, 336.593 305.021, 329.058 292.307 C 327.166 289.113, 324.199 283.800, 322.467 280.500 C 316.954 269.999, 313.721 264.510, 312.848 264.167 C 312.382 263.983, 312 263.291, 312 262.627 C 312 260.702, 304.993 247.625, 303.225 246.250 C 300.758 244.331, 297.150 244.759, 294.640 247.269 M 97.070 247.691 C 97.032 248.896, 97.450 250.160, 98 250.500 C 99.183 251.231, 99.183 250.252, 98 247.500 C 97.171 245.572, 97.138 245.579, 97.070 247.691 M 305.500 255 C 306.495 256.100, 307.481 257, 307.690 257 C 307.899 257, 307.589 256.100, 307 255 C 306.411 253.900, 305.426 253, 304.810 253 C 304.194 253, 304.505 253.900, 305.500 255 M 289.965 257.542 C 289.007 258.697, 288.974 259.328, 289.834 260.051 C 290.466 260.582, 290.778 260.729, 290.527 260.377 C 290.276 260.025, 290.520 258.896, 291.070 257.869 C 292.283 255.602, 291.714 255.435, 289.965 257.542 M 252.320 273 C 252.320 276.575, 252.502 278.038, 252.723 276.250 C 252.945 274.462, 252.945 271.538, 252.723 269.750 C 252.502 267.962, 252.320 269.425, 252.320 273 M 148.015 278.595 C 148.007 279.197, 148.866 280.474, 149.924 281.431 C 151.263 282.643, 151.789 282.766, 151.652 281.836 C 151.544 281.101, 151.066 280.426, 150.590 280.335 C 150.113 280.245, 149.343 279.570, 148.877 278.835 C 148.405 278.091, 148.024 277.984, 148.015 278.595 M 252.378 323 C 252.378 329.325, 252.541 331.913, 252.739 328.750 C 252.937 325.587, 252.937 320.413, 252.739 317.250 C 252.541 314.087, 252.378 316.675, 252.378 323 M 193.395 353.500 C 193.396 361.200, 193.553 364.218, 193.743 360.206 C 193.934 356.195, 193.932 349.895, 193.741 346.206 C 193.549 342.518, 193.393 345.800, 193.395 353.500 M 228.336 367 C 228.336 371.125, 228.513 372.813, 228.728 370.750 C 228.944 368.688, 228.944 365.313, 228.728 363.250 C 228.513 361.188, 228.336 362.875, 228.336 367 M 463.719 372.158 C 462.739 373.870, 462.116 375.449, 462.333 375.667 C 462.945 376.279, 466.167 370.997, 465.813 369.962 C 465.641 369.458, 464.698 370.446, 463.719 372.158 M 251.657 382.726 C 251.324 384.776, 251.406 386.806, 251.839 387.239 C 252.271 387.671, 252.730 385.994, 252.859 383.512 C 253.142 378.043, 252.487 377.614, 251.657 382.726 M 285.070 391.083 C 285.110 398.132, 285.477 402.637, 285.920 401.504 C 286.665 399.595, 286.201 379.948, 285.391 379.083 C 285.176 378.854, 285.032 384.254, 285.070 391.083 M 309.349 399 C 309.349 403.675, 309.522 405.587, 309.732 403.250 C 309.943 400.913, 309.943 397.087, 309.732 394.750 C 309.522 392.413, 309.349 394.325, 309.349 399 M 234.500 421.375 C 233.400 422.023, 232.350 423.216, 232.168 424.027 C 231.961 424.943, 232.812 424.583, 234.418 423.076 C 237.935 419.774, 237.956 419.338, 234.500 421.375 M 190 428.500 C 187.571 430.975, 185.934 433, 186.363 433 C 186.792 433, 187.673 432.413, 188.321 431.696 C 188.970 430.979, 190.822 428.954, 192.437 427.196 C 196.854 422.390, 195.049 423.355, 190 428.500 M 252.437 445.125 C 250.381 447.313, 250.130 447.868, 251.602 446.977 C 253.418 445.877, 256.607 442, 255.696 442 C 255.519 442, 254.052 443.406, 252.437 445.125 M 331.895 447.774 C 330.230 449.659, 330.110 449.994, 331.500 448.873 C 332.600 447.987, 334.153 447.060, 334.951 446.814 C 335.866 446.531, 336.012 446.125, 335.346 445.714 C 334.766 445.355, 333.213 446.282, 331.895 447.774 M 395 450.500 C 394.306 451.337, 394.197 452, 394.755 452 C 395.305 452, 396.315 451.325, 397 450.500 C 397.694 449.663, 397.803 449, 397.245 449 C 396.695 449, 395.685 449.675, 395 450.500 M 310.234 469.029 C 308.438 470.663, 307.313 471.986, 307.734 471.968 C 308.737 471.927, 311.151 469.945, 312.872 467.750 C 314.870 465.203, 313.951 465.648, 310.234 469.029 M 178.108 477.058 C 176.793 478.154, 175.929 479.262, 176.188 479.521 C 176.447 479.780, 177.714 478.869, 179.004 477.496 C 181.810 474.509, 181.406 474.312, 178.108 477.058 M 253.189 481.039 C 251.985 482.160, 251 483.364, 251 483.713 C 251 484.063, 252.125 483.292, 253.500 482 C 255.845 479.797, 256.426 479, 255.689 479 C 255.517 479, 254.392 479.918, 253.189 481.039 M 171.286 482.606 C 170.068 483.923, 169.427 485, 169.861 485 C 170.296 485, 171.708 483.875, 173 482.500 C 174.292 481.125, 174.933 480.048, 174.424 480.106 C 173.916 480.164, 172.504 481.289, 171.286 482.606" stroke="none" fill="#d4dce4" fill-rule="evenodd"/></svg>